<svg width="120" height="40" viewBox="0 0 120 40" fill="none" xmlns="http://www.w3.org/2000/svg">
  <!-- Silhouette de l'Afrique en orange -->
  <path d="M8 5 L12 3 L16 5 L20 8 L22 12 L24 18 L26 24 L28 30 L30 36 L32 40 L34 38 L36 32 L38 26 L40 20 L38 14 L36 8 L32 5 L28 3 L24 2 L20 3 L16 5 L12 7 L8 5 Z" fill="#ff6b35"/>
  <path d="M10 8 L14 6 L18 8 L22 12 L24 18 L26 24 L28 30 L30 34 L32 32 L34 26 L36 20 L34 14 L32 10 L28 7 L24 5 L20 6 L16 8 L12 10 L10 8 Z" fill="#ff6b35"/>
  
  <!-- Texte Retrouv en orange -->
  <text x="45" y="28" font-family="Arial, sans-serif" font-size="24" font-weight="bold" fill="#ff6b35">Retrouv</text>
</svg>

